<svg width="112" height="38" viewBox="0 0 112 38" fill="none" xmlns="http://www.w3.org/2000/svg">
<rect x="0.5" y="0.5" width="111" height="37" fill="black"/>
<rect x="0.5" y="0.5" width="111" height="37" stroke="black"/>
<rect width="35" height="36" transform="translate(1 1)" fill="white"/>
<g clip-path="url(#clip0_141_136)">
<path d="M25.0828 4.19298C25.123 4.19197 25.1812 4.19167 25.2313 4.19685C25.345 4.20861 25.4274 4.22245 25.5472 4.27711C25.6531 4.3254 25.7099 4.37129 25.7832 4.43276C25.8185 4.46248 25.8564 4.50079 25.8825 4.52802C25.8962 4.54233 25.9081 4.5551 25.9166 4.56428C25.9208 4.56887 25.9242 4.57262 25.9267 4.57528C25.9278 4.57657 25.9287 4.57765 25.9294 4.5784C25.9297 4.57877 25.93 4.57905 25.9303 4.57928C25.9304 4.57939 25.9305 4.57958 25.9305 4.57965H25.9306L25.9352 4.5849L25.9393 4.59028L31.6361 11.9513L31.6552 11.9759L31.6656 12.0052L31.6657 12.0055C31.6657 12.0057 31.6657 12.0058 31.6658 12.006C31.6659 12.0065 31.6662 12.0071 31.6665 12.0078C31.667 12.0092 31.6676 12.0112 31.6684 12.0138C31.6702 12.0188 31.6727 12.026 31.6757 12.0352C31.6817 12.0535 31.6899 12.0797 31.6995 12.112C31.7188 12.1766 31.7435 12.2668 31.7658 12.3696C31.8086 12.5671 31.849 12.8416 31.8001 13.0693C31.7348 13.3726 31.6451 13.5613 31.4359 13.7966C31.2837 13.9678 31.0421 14.0934 30.8612 14.1724C30.7669 14.2137 30.6811 14.2457 30.6188 14.2673C30.5875 14.2782 30.562 14.2865 30.544 14.2922C30.535 14.2951 30.5279 14.2973 30.5229 14.2988C30.5203 14.2996 30.5183 14.3002 30.5169 14.3006C30.5162 14.3008 30.5156 14.301 30.5152 14.3011C30.5149 14.3011 30.5148 14.3013 30.5147 14.3013H30.5144L30.4603 14.1171L30.5143 14.3013L30.4878 14.3091H17.2192L24.8509 24.1125L24.8689 24.1355L24.8791 24.1628L24.8792 24.1629L24.8797 24.1644C24.8801 24.1653 24.8806 24.1668 24.8813 24.1684C24.8826 24.1719 24.8845 24.1769 24.8868 24.1833C24.8914 24.1961 24.8981 24.2144 24.906 24.2372C24.922 24.2826 24.9435 24.3464 24.9663 24.4192C25.0107 24.5618 25.0633 24.752 25.0821 24.9122C25.1075 25.1274 25.1394 25.2968 25.0783 25.5548C25.0179 25.8099 24.9244 25.9468 24.7921 26.1337C24.6425 26.3448 24.5301 26.4839 24.2888 26.6339C24.1771 26.7034 24.03 26.7572 23.9222 26.7919C23.866 26.8099 23.8161 26.8243 23.7801 26.834C23.7622 26.8389 23.7474 26.8427 23.7371 26.8453C23.7319 26.8465 23.7278 26.8476 23.725 26.8483C23.7235 26.8486 23.7225 26.849 23.7216 26.8491C23.7212 26.8492 23.7208 26.8494 23.7205 26.8494C23.7204 26.8495 23.7203 26.8495 23.7202 26.8495H23.72L23.698 26.8547H10.5667L12.9508 29.8631H24.0435L24.7768 29.7409C24.7803 29.7396 24.7841 29.7382 24.7883 29.7365C24.8074 29.7291 24.8355 29.7181 24.8703 29.7041C24.9399 29.6762 25.037 29.6364 25.146 29.589C25.3667 29.493 25.6275 29.3698 25.8131 29.2527C26.3331 28.9246 26.5936 28.6863 26.9826 28.2062C27.3009 27.8131 27.4345 27.5596 27.6632 27.0907C27.9219 26.5604 28.0749 26.2825 28.158 25.7378C28.2221 25.3178 28.2013 25.0778 28.1569 24.6336C28.1094 24.16 28.0671 23.9005 27.9111 23.4629C27.8177 23.2014 27.745 23.0604 27.6156 22.8103L27.6013 22.7825C27.3967 22.3868 27.0544 21.9188 26.7571 21.5437C26.6096 21.3575 26.4752 21.1968 26.3777 21.0827C26.329 21.0256 26.2895 20.9801 26.2623 20.9493C26.2488 20.9338 26.2383 20.9219 26.2312 20.914C26.2276 20.91 26.225 20.9069 26.2232 20.905C26.2224 20.904 26.2218 20.9033 26.2214 20.9028L26.2207 20.9022L26.2178 20.899L26.2151 20.8957L25.0629 19.4875L23.591 17.6955L23.333 17.3815H27.7362L27.7938 17.4537L29.0759 19.0563L30.164 20.4645L30.1713 20.4741L30.1775 20.4843L31.0096 21.8925L31.0172 21.9053L31.0227 21.9192L30.8443 21.9901L31.0227 21.9193L31.0228 21.9194C31.0229 21.9195 31.0229 21.9198 31.0229 21.92C31.0232 21.9204 31.0236 21.9211 31.0238 21.9218C31.0244 21.9236 31.0255 21.9261 31.0268 21.9294C31.0293 21.9359 31.033 21.9455 31.0379 21.9578C31.0474 21.9825 31.0612 22.0182 31.0781 22.0628C31.1118 22.1518 31.1577 22.2763 31.2074 22.4189C31.3058 22.7017 31.4216 23.0641 31.4807 23.3608C31.5346 23.6319 31.5672 23.9781 31.5866 24.251C31.5962 24.3885 31.6027 24.5096 31.6067 24.5964C31.6087 24.6398 31.61 24.6747 31.6109 24.6989C31.6114 24.7108 31.6117 24.7202 31.6119 24.7266C31.612 24.7298 31.612 24.7323 31.6122 24.734C31.6122 24.7349 31.6123 24.7355 31.6123 24.736V24.7367L31.6126 24.7435L31.6122 24.7501L31.4204 24.7424L31.6122 24.7503V24.7528C31.612 24.7546 31.6119 24.7572 31.6118 24.7605C31.6115 24.7672 31.6111 24.777 31.6105 24.7896C31.6094 24.8145 31.6077 24.8509 31.6053 24.8962C31.6005 24.9866 31.5932 25.1128 31.583 25.2563C31.5626 25.5415 31.53 25.9014 31.4815 26.1833C31.3922 26.7016 31.3152 26.9923 31.1552 27.4897C31.07 27.7543 30.9392 28.0806 30.8314 28.3374C30.7772 28.4666 30.7283 28.5796 30.6929 28.6604C30.6752 28.7007 30.6608 28.7331 30.6508 28.7554C30.6458 28.7665 30.6419 28.7751 30.6392 28.781C30.638 28.7839 30.6369 28.7863 30.6363 28.7878C30.6359 28.7886 30.6357 28.7891 30.6355 28.7896C30.6354 28.7897 30.6353 28.79 30.6353 28.7901L30.6351 28.7902L30.6313 28.7989L30.6264 28.8072L29.9223 30.0234L29.9126 30.0399L29.9001 30.0544L28.9399 31.1425L28.9314 31.1521L28.9218 31.1605L27.9616 31.9926L27.9491 32.0036L26.9745 32.5882L26.9605 32.5967L26.9453 32.6026L25.7931 33.0506L25.7756 33.0575L25.757 33.0607L24.6689 33.2528L24.6532 33.2555L24.6374 33.2556L12.4118 33.3836H11.7327L11.6983 33.37L11.3783 33.242C11.3208 33.219 11.2636 33.1785 11.2195 33.1445C11.1717 33.1076 11.1232 33.0651 11.0809 33.0263C11.0383 32.9873 11.0001 32.95 10.9726 32.9227C10.9588 32.909 10.9476 32.8977 10.9397 32.8897C10.9358 32.8857 10.9328 32.8825 10.9306 32.8804C10.9296 32.8792 10.9287 32.8783 10.9281 32.8777L10.9271 32.8767L10.927 32.8765L10.9205 32.8699L10.9147 32.8623L5.47401 25.9494L5.46463 25.9375L5.45713 25.9243L5.457 25.9239C5.45689 25.9237 5.45669 25.9234 5.4565 25.923L5.44975 25.9106C5.44528 25.9024 5.43893 25.8906 5.43125 25.876C5.41591 25.8468 5.39497 25.8058 5.37249 25.7586C5.32914 25.6676 5.27388 25.5408 5.24635 25.4282C5.17374 25.1311 5.17374 24.93 5.24635 24.633C5.29745 24.4239 5.3554 24.3056 5.46038 24.1314C5.58075 23.9316 5.67317 23.7781 5.90119 23.6234C6.02796 23.5375 6.19897 23.483 6.32175 23.4509C6.38623 23.4339 6.44393 23.4214 6.48552 23.4134C6.50638 23.4093 6.52339 23.4061 6.5354 23.4039C6.54141 23.4029 6.54625 23.4021 6.54965 23.4016C6.55132 23.4013 6.55267 23.4011 6.55365 23.401C6.55415 23.4008 6.55459 23.4007 6.55491 23.4007H6.55552L6.57015 23.3983H19.8287L12.5801 13.9813L12.58 13.9812C12.5799 13.9811 12.5797 13.9808 12.5796 13.9807C12.5793 13.9804 12.579 13.9799 12.5786 13.9794C12.5777 13.9783 12.5765 13.9769 12.575 13.9749C12.5719 13.971 12.5675 13.9654 12.5618 13.9582C12.5506 13.9438 12.5345 13.923 12.515 13.897C12.4759 13.8452 12.4224 13.7723 12.3646 13.6876C12.2515 13.5221 12.112 13.2978 12.0375 13.0952C11.9626 12.8914 11.9261 12.7627 11.8991 12.54C11.8743 12.3354 11.8612 12.1966 11.9006 11.9717C11.9402 11.7458 11.983 11.5928 12.1225 11.3856C12.2371 11.2153 12.3327 11.129 12.4902 11.0165C12.6496 10.9027 12.8713 10.8317 13.0347 10.7897C13.1197 10.7679 13.196 10.7523 13.2511 10.7421C13.2786 10.737 13.301 10.7332 13.3168 10.7306C13.3247 10.7293 13.331 10.7283 13.3354 10.7276C13.3376 10.7273 13.3394 10.727 13.3407 10.7268C13.3413 10.7268 13.3418 10.7267 13.3422 10.7266H13.3429L13.3564 10.7246H26.2982L24.0277 7.7162H13.3719C13.3716 7.7162 13.3711 7.71632 13.3704 7.71632C13.369 7.71634 13.3669 7.71627 13.3639 7.71632C13.3581 7.71643 13.3492 7.71664 13.3377 7.71695C13.3146 7.71756 13.2806 7.71873 13.2383 7.72057C13.1535 7.72428 13.0354 7.73103 12.9023 7.74333C12.6313 7.76836 12.316 7.8147 12.0915 7.89659C11.7676 8.01478 11.6228 8.13025 11.2925 8.32891C10.9804 8.51664 10.8534 8.58001 10.5454 8.82634C10.3914 8.94952 10.2198 9.10543 10.085 9.23227C10.018 9.29532 9.96083 9.35043 9.92048 9.3898C9.90192 9.40791 9.88683 9.42258 9.8761 9.43318C9.8688 9.44631 9.85882 9.46431 9.84647 9.48607C9.8195 9.53359 9.78145 9.59966 9.73696 9.67372C9.64926 9.81964 9.53176 10.0049 9.42329 10.1405C9.39085 10.1811 9.34241 10.271 9.28502 10.4027C9.2301 10.5288 9.17404 10.6765 9.12325 10.8189C9.0726 10.9609 9.02797 11.0955 8.99598 11.1948C8.98002 11.2443 8.96724 11.2849 8.95848 11.3131C8.9541 11.3271 8.95074 11.3381 8.94847 11.3454C8.94784 11.3491 8.947 11.3536 8.9461 11.3588C8.94331 11.3752 8.93928 11.3991 8.93435 11.4289C8.92448 11.4887 8.91105 11.5724 8.89684 11.6676C8.86819 11.8595 8.83716 12.0933 8.82483 12.2739C8.79744 12.6754 8.77667 12.8855 8.82383 13.2611C8.87933 13.703 8.9554 13.9439 9.1305 14.3632C9.19686 14.5221 9.30401 14.7217 9.39753 14.8859C9.44373 14.967 9.48562 15.0378 9.51592 15.0882C9.53107 15.1134 9.54329 15.1335 9.55168 15.1472C9.55448 15.1518 9.5569 15.1556 9.55881 15.1587L13.3918 19.95L13.6415 20.2618H9.23852L9.18113 20.1814L8.86447 19.7383L8.03623 18.7188L8.03422 18.7163L7.33013 17.8202L7.32813 17.8177L7.32626 17.8152L6.61528 16.8457L6.60966 16.8356L6.03358 15.8114L6.02533 15.7968L6.01971 15.7809V15.7807C6.01966 15.7805 6.01953 15.7804 6.01946 15.7802C6.0193 15.7797 6.01911 15.7791 6.01883 15.7783C6.01826 15.7767 6.01741 15.7743 6.01633 15.7712C6.01416 15.7649 6.011 15.7557 6.00695 15.7439C5.99886 15.7203 5.98718 15.6862 5.97295 15.6436C5.94449 15.5585 5.90551 15.4394 5.86331 15.3034C5.7795 15.0331 5.68071 14.6883 5.62815 14.4086C5.53752 13.9264 5.51998 13.6463 5.49701 13.1662C5.47772 12.763 5.4719 12.5298 5.49726 12.1209C5.52263 11.7118 5.5489 11.4769 5.6284 11.0718C5.70494 10.6817 5.78835 10.4572 5.88781 10.0974C5.97821 9.77045 6.0121 9.53231 6.15035 9.18203C6.31334 8.76904 6.45062 8.5507 6.67867 8.18977C7.01117 7.6635 7.25067 7.39679 7.65893 6.9471C7.94832 6.62833 8.12189 6.45543 8.44003 6.16599C8.73087 5.90139 8.90145 5.7507 9.22352 5.5134C9.39739 5.38529 9.62677 5.23789 9.80972 5.12423C9.90179 5.06703 9.98327 5.01768 10.0418 4.98258C10.071 4.96503 10.0945 4.95097 10.1108 4.94133C10.1189 4.93651 10.1252 4.93275 10.1295 4.9302C10.1317 4.92893 10.1334 4.92799 10.1345 4.92732C10.1351 4.92701 10.1355 4.92675 10.1358 4.92657C10.1359 4.92649 10.136 4.92637 10.1361 4.92632L10.1468 4.9202L10.1579 4.91545L11.054 4.5314L11.0613 4.52815L11.0689 4.52565L11.6603 4.32849L11.6765 4.32599L12.5086 4.19798L12.5231 4.19573H25.0158C25.0194 4.19552 25.024 4.19525 25.0295 4.19498C25.0428 4.19431 25.0615 4.19351 25.0828 4.19298Z" fill="#0190E8"/>
<path d="M6.01971 15.7809L6.02533 15.7968L6.03358 15.8114L6.60966 16.8356L6.61528 16.8457L7.32626 17.8152L7.32813 17.8177L7.33013 17.8202L8.03422 18.7163L8.03623 18.7188L8.86447 19.7383L9.18113 20.1814L9.23852 20.2618H13.6415L13.3918 19.95L9.55881 15.1587C9.5569 15.1556 9.55448 15.1518 9.55168 15.1472C9.54329 15.1335 9.53107 15.1134 9.51592 15.0882C9.48562 15.0378 9.44373 14.967 9.39753 14.8859C9.30401 14.7217 9.19686 14.5221 9.1305 14.3632C8.9554 13.9439 8.87933 13.703 8.82383 13.2611C8.77667 12.8855 8.79744 12.6754 8.82483 12.2739C8.83716 12.0933 8.86819 11.8595 8.89684 11.6676C8.91105 11.5724 8.92448 11.4887 8.93435 11.4289C8.93928 11.3991 8.94331 11.3752 8.9461 11.3588C8.947 11.3536 8.94784 11.3491 8.94847 11.3454C8.95074 11.3381 8.9541 11.3271 8.95848 11.3131C8.96724 11.2849 8.98002 11.2443 8.99598 11.1948C9.02797 11.0955 9.0726 10.9609 9.12325 10.8189C9.17404 10.6765 9.2301 10.5288 9.28502 10.4027C9.34241 10.271 9.39085 10.1811 9.42329 10.1405C9.53176 10.0049 9.64926 9.81964 9.73696 9.67372C9.78145 9.59966 9.8195 9.53359 9.84647 9.48607C9.85882 9.46431 9.8688 9.44631 9.8761 9.43318C9.88683 9.42258 9.90192 9.40791 9.92048 9.3898C9.96083 9.35043 10.018 9.29532 10.085 9.23227C10.2198 9.10543 10.3914 8.94952 10.5454 8.82634C10.8534 8.58001 10.9804 8.51664 11.2925 8.32891C11.6228 8.13025 11.7676 8.01478 12.0915 7.89659C12.316 7.8147 12.6313 7.76836 12.9023 7.74333C13.0354 7.73103 13.1535 7.72428 13.2383 7.72057C13.2806 7.71873 13.3146 7.71756 13.3377 7.71695C13.3492 7.71664 13.3581 7.71643 13.3639 7.71632C13.3669 7.71627 13.369 7.71634 13.3704 7.71632C13.3711 7.71632 13.3716 7.7162 13.3719 7.7162H24.0277L26.2982 10.7246H13.3564L13.3429 10.7266H13.3422C13.3418 10.7267 13.3413 10.7268 13.3407 10.7268C13.3394 10.727 13.3376 10.7273 13.3354 10.7276C13.331 10.7283 13.3247 10.7293 13.3168 10.7306C13.301 10.7332 13.2786 10.737 13.2511 10.7421C13.196 10.7523 13.1197 10.7679 13.0347 10.7897C12.8713 10.8317 12.6496 10.9027 12.4902 11.0165C12.3327 11.129 12.2371 11.2153 12.1225 11.3856C11.983 11.5928 11.9402 11.7458 11.9006 11.9717C11.8612 12.1966 11.8743 12.3354 11.8991 12.54C11.9261 12.7627 11.9626 12.8914 12.0375 13.0952C12.112 13.2978 12.2515 13.5221 12.3646 13.6876C12.4224 13.7723 12.4759 13.8452 12.515 13.897C12.5345 13.923 12.5506 13.9438 12.5618 13.9582C12.5675 13.9654 12.5719 13.971 12.575 13.9749C12.5765 13.9769 12.5777 13.9783 12.5786 13.9794C12.579 13.9799 12.5793 13.9804 12.5796 13.9807C12.5797 13.9808 12.5799 13.9811 12.58 13.9812L12.5801 13.9813L19.8287 23.3983H6.57015L6.55552 23.4007H6.55491C6.55459 23.4007 6.55415 23.4008 6.55365 23.401C6.55267 23.4011 6.55132 23.4013 6.54965 23.4016C6.54625 23.4021 6.54141 23.4029 6.5354 23.4039C6.52339 23.4061 6.50638 23.4093 6.48552 23.4134C6.44393 23.4214 6.38623 23.4339 6.32175 23.4509C6.19897 23.483 6.02796 23.5375 5.90119 23.6234C5.67317 23.7781 5.58075 23.9316 5.46038 24.1314C5.3554 24.3056 5.29745 24.4239 5.24635 24.633C5.17374 24.93 5.17374 25.1311 5.24635 25.4282C5.27388 25.5408 5.32914 25.6676 5.37249 25.7586C5.39497 25.8058 5.41591 25.8468 5.43125 25.876C5.43893 25.8906 5.44528 25.9024 5.44975 25.9106L5.4565 25.923C5.45669 25.9234 5.45689 25.9237 5.457 25.9239L5.45713 25.9243L5.46463 25.9375L5.47401 25.9494L10.9147 32.8623L10.9205 32.8699L10.927 32.8765L10.9271 32.8767L10.9281 32.8777C10.9287 32.8783 10.9296 32.8792 10.9306 32.8804C10.9328 32.8825 10.9358 32.8857 10.9397 32.8897C10.9476 32.8977 10.9588 32.909 10.9726 32.9227C11.0001 32.95 11.0383 32.9873 11.0809 33.0263C11.1232 33.0651 11.1717 33.1076 11.2195 33.1445C11.2636 33.1785 11.3208 33.219 11.3783 33.242L11.6983 33.37L11.7327 33.3836H12.4118L24.6374 33.2556L24.6532 33.2555L24.6689 33.2528L25.757 33.0607L25.7756 33.0575L25.7931 33.0506L26.9453 32.6026L26.9605 32.5967L26.9745 32.5882L27.9491 32.0036L27.9616 31.9926L28.9218 31.1605L28.9314 31.1521L28.9399 31.1425L29.9001 30.0544L29.9126 30.0399L29.9223 30.0234L30.6264 28.8072L30.6313 28.7989L30.6351 28.7902L30.6353 28.7901C30.6353 28.79 30.6354 28.7897 30.6355 28.7896C30.6357 28.7891 30.6359 28.7886 30.6363 28.7878C30.6369 28.7863 30.638 28.7839 30.6392 28.781C30.6419 28.7751 30.6458 28.7665 30.6508 28.7554C30.6608 28.7331 30.6752 28.7007 30.6929 28.6604C30.7283 28.5796 30.7772 28.4666 30.8314 28.3374C30.9392 28.0806 31.07 27.7543 31.1552 27.4897C31.3152 26.9923 31.3922 26.7016 31.4815 26.1833C31.53 25.9014 31.5626 25.5415 31.583 25.2563C31.5932 25.1128 31.6005 24.9866 31.6053 24.8962C31.6077 24.8509 31.6094 24.8145 31.6105 24.7896C31.6111 24.777 31.6115 24.7672 31.6118 24.7605C31.6119 24.7572 31.612 24.7546 31.6122 24.7528V24.7503L31.4204 24.7424L31.6122 24.7501L31.6126 24.7435L31.6123 24.7367V24.736C31.6123 24.7355 31.6122 24.7349 31.6122 24.734C31.612 24.7323 31.612 24.7298 31.6119 24.7266C31.6117 24.7202 31.6114 24.7108 31.6109 24.6989C31.61 24.6747 31.6087 24.6398 31.6067 24.5964C31.6027 24.5096 31.5962 24.3885 31.5866 24.251C31.5672 23.9781 31.5346 23.6319 31.4807 23.3608C31.4216 23.0641 31.3058 22.7017 31.2074 22.4189C31.1577 22.2763 31.1118 22.1518 31.0781 22.0628C31.0612 22.0182 31.0474 21.9825 31.0379 21.9578C31.033 21.9455 31.0293 21.9359 31.0268 21.9294C31.0255 21.9261 31.0244 21.9236 31.0238 21.9218C31.0236 21.9211 31.0232 21.9204 31.0229 21.92C31.0229 21.9198 31.0229 21.9195 31.0228 21.9194L31.0227 21.9193L30.8443 21.9901L31.0227 21.9192L31.0172 21.9053L31.0096 21.8925L30.1775 20.4843L30.1713 20.4741L30.164 20.4645L29.0759 19.0563L27.7938 17.4537L27.7362 17.3815H23.333L23.591 17.6955L25.0629 19.4875L26.2151 20.8957L26.2178 20.899L26.2207 20.9022L26.2214 20.9028C26.2218 20.9033 26.2224 20.904 26.2232 20.905C26.225 20.9069 26.2276 20.91 26.2312 20.914C26.2383 20.9219 26.2488 20.9338 26.2623 20.9493C26.2895 20.9801 26.329 21.0256 26.3777 21.0827C26.4752 21.1968 26.6096 21.3575 26.7571 21.5437C27.0544 21.9188 27.3967 22.3868 27.6013 22.7825L27.6156 22.8103C27.745 23.0604 27.8177 23.2014 27.9111 23.4629C28.0671 23.9005 28.1094 24.16 28.1569 24.6336C28.2013 25.0778 28.2221 25.3178 28.158 25.7378C28.0749 26.2825 27.9219 26.5604 27.6632 27.0907C27.4345 27.5596 27.3009 27.8131 26.9826 28.2062C26.5936 28.6863 26.3331 28.9246 25.8131 29.2527C25.6275 29.3698 25.3667 29.493 25.146 29.589C25.037 29.6364 24.9399 29.6762 24.8703 29.7041C24.8355 29.7181 24.8074 29.7291 24.7883 29.7365C24.7841 29.7382 24.7803 29.7396 24.7768 29.7409L24.0435 29.8631H12.9508L10.5667 26.8547H23.698L23.72 26.8495H23.7202C23.7203 26.8495 23.7204 26.8495 23.7205 26.8494C23.7208 26.8494 23.7212 26.8492 23.7216 26.8491C23.7225 26.849 23.7235 26.8486 23.725 26.8483C23.7278 26.8476 23.7319 26.8465 23.7371 26.8453C23.7474 26.8427 23.7622 26.8389 23.7801 26.834C23.8161 26.8243 23.866 26.8099 23.9222 26.7919C24.03 26.7572 24.1771 26.7034 24.2888 26.6339C24.5301 26.4839 24.6425 26.3448 24.7921 26.1337C24.9244 25.9468 25.0179 25.8099 25.0783 25.5548C25.1394 25.2968 25.1075 25.1274 25.0821 24.9122C25.0633 24.752 25.0107 24.5618 24.9663 24.4192C24.9435 24.3464 24.922 24.2826 24.906 24.2372C24.8981 24.2144 24.8914 24.1961 24.8868 24.1833C24.8845 24.1769 24.8826 24.1719 24.8813 24.1684C24.8806 24.1668 24.8801 24.1653 24.8797 24.1644L24.8792 24.1629L24.8791 24.1628L24.8689 24.1355L24.8509 24.1125L17.2192 14.3091H30.4878L30.5143 14.3013L30.4603 14.1171L30.5144 14.3013H30.5147C30.5148 14.3013 30.5149 14.3011 30.5152 14.3011C30.5156 14.301 30.5162 14.3008 30.5169 14.3006C30.5183 14.3002 30.5203 14.2996 30.5229 14.2988C30.5279 14.2973 30.535 14.2951 30.544 14.2922C30.562 14.2865 30.5875 14.2782 30.6188 14.2673C30.6811 14.2457 30.7669 14.2137 30.8612 14.1724C31.0421 14.0934 31.2837 13.9678 31.4359 13.7966C31.6451 13.5613 31.7348 13.3726 31.8001 13.0693C31.849 12.8416 31.8086 12.5671 31.7658 12.3696C31.7435 12.2668 31.7188 12.1766 31.6995 12.112C31.6899 12.0797 31.6817 12.0535 31.6757 12.0352C31.6727 12.026 31.6702 12.0188 31.6684 12.0138C31.6676 12.0112 31.667 12.0092 31.6665 12.0078C31.6662 12.0071 31.6659 12.0065 31.6658 12.006C31.6657 12.0058 31.6657 12.0057 31.6657 12.0055L31.6656 12.0052L31.6552 11.9759L31.6361 11.9513L25.9393 4.59028L25.9352 4.5849L25.9306 4.57965H25.9305C25.9305 4.57958 25.9304 4.57939 25.9303 4.57928C25.93 4.57905 25.9297 4.57877 25.9294 4.5784C25.9287 4.57765 25.9278 4.57657 25.9267 4.57528C25.9242 4.57262 25.9208 4.56887 25.9166 4.56428C25.9081 4.5551 25.8962 4.54233 25.8825 4.52802C25.8564 4.50079 25.8185 4.46248 25.7832 4.43276C25.7099 4.37129 25.6531 4.3254 25.5472 4.27711C25.4274 4.22245 25.345 4.20861 25.2313 4.19685C25.1812 4.19167 25.123 4.19197 25.0828 4.19298C25.0615 4.19351 25.0428 4.19431 25.0295 4.19498C25.024 4.19525 25.0194 4.19552 25.0158 4.19573H12.5231L12.5086 4.19798L11.6765 4.32599L11.6603 4.32849L11.0689 4.52565L11.0613 4.52815L11.054 4.5314L10.1579 4.91545L10.1468 4.9202L10.1361 4.92632C10.136 4.92637 10.1359 4.92649 10.1358 4.92657C10.1355 4.92675 10.1351 4.92701 10.1345 4.92732C10.1334 4.92799 10.1317 4.92893 10.1295 4.9302C10.1252 4.93275 10.1189 4.93651 10.1108 4.94133C10.0945 4.95097 10.071 4.96503 10.0418 4.98258C9.98327 5.01768 9.90179 5.06703 9.80972 5.12423C9.62677 5.23789 9.39739 5.38529 9.22352 5.5134C8.90145 5.7507 8.73087 5.90139 8.44003 6.16599C8.12189 6.45543 7.94832 6.62833 7.65893 6.9471C7.25067 7.39679 7.01117 7.6635 6.67867 8.18977C6.45062 8.5507 6.31334 8.76904 6.15035 9.18203C6.0121 9.53231 5.97821 9.77045 5.88781 10.0974C5.78835 10.4572 5.70494 10.6817 5.6284 11.0718C5.5489 11.4769 5.52263 11.7118 5.49726 12.1209C5.4719 12.5298 5.47772 12.763 5.49701 13.1662C5.51998 13.6463 5.53752 13.9264 5.62815 14.4086C5.68071 14.6883 5.7795 15.0331 5.86331 15.3034C5.90551 15.4394 5.94449 15.5585 5.97295 15.6436C5.98718 15.6862 5.99886 15.7203 6.00695 15.7439C6.011 15.7557 6.01416 15.7649 6.01633 15.7712C6.01741 15.7743 6.01826 15.7767 6.01883 15.7783C6.01911 15.7791 6.0193 15.7797 6.01946 15.7802C6.01953 15.7804 6.01966 15.7805 6.01971 15.7807V15.7809ZM31.6656 12.0052L31.4844 12.0688M6.01971 15.7809L6.20098 15.7173" stroke="#0190E8" stroke-width="0.39624"/>
</g>
<path d="M50.2868 11.182L47.3942 10.9719V7.27578H47.3201C47.1223 7.26754 46.941 7.26342 46.7762 7.26342C46.0015 7.26342 45.4576 7.32935 45.1445 7.46121C44.8313 7.59306 44.6624 7.99687 44.6376 8.67263C44.6294 8.77976 44.6212 8.91162 44.6129 9.06819C44.6129 9.22477 44.6088 9.38547 44.6006 9.55029C44.6006 9.70687 44.6006 9.83872 44.6006 9.94586V10.1189L50.8678 14.6061V17.9561C50.8678 18.6978 50.6948 19.3735 50.3486 19.9834C50.0025 20.5932 49.5039 21.0794 48.8529 21.442C48.2101 21.8046 47.4313 21.9859 46.5166 21.9859H41.2506V15.6692L44.1432 15.8794L44.5017 18.9944C44.8066 18.9944 45.0827 18.9986 45.3299 19.0068C45.5029 19.015 45.6636 19.0192 45.812 19.0192C46.2075 19.0192 46.5413 18.9944 46.8133 18.945C47.0852 18.8873 47.2706 18.7101 47.3695 18.4134C47.4684 18.1085 47.5179 17.61 47.5179 16.9177V16.6952L41.2506 12.1215V8.31415C41.2506 7.57246 41.4196 6.8967 41.7574 6.28687C42.1035 5.67704 42.6021 5.19082 43.2532 4.82822C43.9042 4.46561 44.6871 4.28431 45.6018 4.28431H50.7195L50.2868 11.182Z" fill="white"/>
<path d="M61.3874 7.34995L55.8371 7.01619V13.6667H61.3874V16.7323L55.8371 16.3985V19.254L61.3874 18.9203V21.9859H55.8371L52.2152 21.9983V16.7323L50.8678 13.6667H52.2152V4.28431H61.3874V7.34995Z" fill="white"/>
<path d="M67.358 4.28431H73.3286V21.9983H69.6943V16.5963L66.641 16.3985H66.6287V21.9983H62.9944V16.7323L61.6594 13.6667H62.9944V8.31415C62.9944 7.57246 63.1674 6.8967 63.5136 6.28687C63.8597 5.67704 64.3541 5.19082 64.9969 4.82822C65.648 4.46561 66.435 4.28431 67.358 4.28431ZM66.6287 13.6667H69.6943V7.27578H69.6819C69.3358 7.2593 69.0227 7.25106 68.7425 7.25106C67.9678 7.25106 67.4404 7.32523 67.1602 7.47357C66.8058 7.66311 66.6287 8.20701 66.6287 9.10528V13.6667Z" fill="white"/>
<path d="M84.7134 6.94202C84.7464 7.0574 84.7753 7.22222 84.8 7.43648C84.8329 7.64251 84.8494 7.81145 84.8494 7.9433V18.2651C84.8494 19.0068 84.6764 19.6826 84.3302 20.2924C83.9841 20.894 83.4855 21.3761 82.8345 21.7387C82.1917 22.1013 81.4088 22.2826 80.4858 22.2826H79.2621C78.3473 22.2826 77.5644 22.1013 76.9134 21.7387C76.2623 21.3761 75.7638 20.894 75.4176 20.2924C75.0798 19.6826 74.9108 19.0068 74.9108 18.2651V8.01747C74.9108 7.27578 75.0798 6.60414 75.4176 6.00255C75.7638 5.39272 76.2623 4.90651 76.9134 4.5439C77.5644 4.1813 78.3473 4 79.2621 4H80.4858C81.6313 4 82.5667 4.27607 83.2919 4.82822C84.0171 5.37212 84.4909 6.07672 84.7134 6.94202ZM81.2152 9.97058C81.2152 9.19593 81.1946 8.59434 81.1534 8.16581C81.1121 7.73728 80.9968 7.4406 80.8072 7.27578C80.6259 7.10272 80.3169 7.01619 79.8801 7.01619C79.4434 7.01619 79.1302 7.10272 78.9407 7.27578C78.7511 7.4406 78.6357 7.73728 78.5945 8.16581C78.5533 8.59434 78.5327 9.19593 78.5327 9.97058V16.312C78.5327 17.0867 78.5533 17.6882 78.5945 18.1168C78.6357 18.5453 78.747 18.8461 78.9283 19.0192C79.1178 19.184 79.4351 19.2664 79.8801 19.2664C80.3251 19.2664 80.6383 19.184 80.8196 19.0192C81.0091 18.8461 81.1204 18.5453 81.1534 18.1168C81.1946 17.6882 81.2152 17.0867 81.2152 16.312V9.97058Z" fill="white"/>
<path d="M92.7607 4.28431H96.3826V21.9983H92.7607V13.0609L90.1401 9.58737V21.9983H86.5677V4.25959L90.066 4.27195L90.1525 4.37084L92.7607 7.81969V4.28431Z" fill="white"/>
<path d="M107.397 7.34995L101.846 7.01619V13.6667H107.397V16.7323L101.846 16.3985V19.254L107.397 18.9203V21.9859H101.846L98.2245 21.9983V16.7323L96.8771 13.6667H98.2245V4.28431H107.397V7.34995Z" fill="white"/>
<path d="M44.1907 28.4045C44.3621 28.389 44.479 28.3813 44.5413 28.3813C44.6037 28.3813 44.705 28.3929 44.8452 28.4161C44.8374 28.6482 44.8336 28.9422 44.8336 29.298C44.8336 29.6539 44.8374 29.917 44.8452 30.0872C44.7284 30.1104 44.6154 30.122 44.5063 30.122C44.3972 30.122 44.292 30.1142 44.1907 30.0988L44.1556 29.6926C43.7348 29.6771 43.4115 29.6694 43.1855 29.6694C42.9595 29.6694 42.6283 29.6771 42.192 29.6926C42.2075 30.8685 42.2426 31.7466 42.2972 32.3268L42.94 32.3732L42.9634 32.6517C42.9634 32.7755 42.9517 32.8954 42.9283 33.0115C42.7257 33.0038 42.3595 32.9999 41.8296 32.9999C41.3075 32.9999 40.9647 33.0038 40.801 33.0115C40.7776 32.8954 40.766 32.7871 40.766 32.6866C40.766 32.5783 40.7738 32.4699 40.7893 32.3616L41.2218 32.3268C41.2841 31.5687 41.3153 30.5939 41.3153 29.4025C41.3153 28.2111 41.2686 27.1628 41.1751 26.2577L40.7776 26.2228C40.7621 26.1223 40.7543 26.0178 40.7543 25.9095C40.7543 25.8012 40.766 25.689 40.7893 25.573C40.9841 25.5807 41.6777 25.5846 42.8699 25.5846C44.0621 25.5846 44.8335 25.5498 45.1842 25.4802L45.2426 25.5382C45.1803 26.219 45.1452 26.7683 45.1375 27.186C45.0595 27.1938 44.9621 27.1976 44.8452 27.1976C44.7284 27.1976 44.6076 27.186 44.4829 27.1628L44.4478 26.3737C44.0504 26.3505 43.6608 26.3389 43.279 26.3389C42.905 26.3389 42.566 26.3505 42.2621 26.3737C42.2153 26.8843 42.192 27.7237 42.192 28.8919H42.7647C43.1933 28.8919 43.6569 28.8764 44.1556 28.8455L44.1907 28.4045Z" fill="white"/>
<path d="M52.1566 26.2228C52.102 26.8495 52.0747 27.8204 52.0747 29.1356C52.0747 30.4508 52.1098 31.5145 52.1799 32.3268L52.6007 32.3616C52.6163 32.4854 52.6241 32.5937 52.6241 32.6866C52.6241 32.7717 52.6124 32.88 52.589 33.0115C52.3163 33.0038 52.0007 32.9999 51.6423 32.9999C51.2838 32.9999 50.9721 33.0038 50.7072 33.0115C50.6838 32.8954 50.6721 32.7949 50.6721 32.7098C50.6721 32.6169 50.6799 32.5009 50.6955 32.3616L51.1046 32.3268C51.1669 31.4913 51.1981 30.4276 51.1981 29.1356C51.1981 27.8359 51.163 26.865 51.0929 26.2228L50.6955 26.188C50.6799 26.0643 50.6721 25.9598 50.6721 25.8747C50.6721 25.7819 50.6838 25.6697 50.7072 25.5382C50.9799 25.5459 51.2955 25.5498 51.654 25.5498C52.0124 25.5498 52.3241 25.5459 52.589 25.5382C52.6124 25.6542 52.6241 25.7587 52.6241 25.8515C52.6241 25.9366 52.6163 26.0488 52.6007 26.188L52.1566 26.2228Z" fill="white"/>
<path d="M63.3586 31.3172C63.382 30.6674 63.3937 29.8164 63.3937 28.7642C63.3937 27.7121 63.3586 26.865 63.2885 26.2228L62.856 26.188C62.8404 26.0643 62.8326 25.9598 62.8326 25.8747C62.8326 25.7819 62.8443 25.6697 62.8677 25.5382C63.117 25.5459 63.4015 25.5498 63.7209 25.5498C64.0482 25.5498 64.3326 25.5459 64.5742 25.5382C64.5976 25.6542 64.6093 25.7587 64.6093 25.8515C64.6093 25.9366 64.6015 26.0488 64.5859 26.188L64.1768 26.2228C64.1222 26.8495 64.095 28.0293 64.095 29.7622C64.095 31.4874 64.1612 32.5589 64.2937 32.9767C64.0599 33.054 63.8885 33.0927 63.7794 33.0927C63.6781 33.0927 63.495 33.085 63.23 33.0695C63.1755 32.8297 62.9456 32.3964 62.5404 31.7698C62.1352 31.1354 61.6287 30.3811 61.0209 29.5069C60.4209 28.6327 59.9884 27.979 59.7235 27.5458C59.7157 27.8784 59.7118 28.5554 59.7118 29.5766C59.7118 30.5977 59.7469 31.5145 59.817 32.3268L60.2495 32.3616C60.265 32.4854 60.2728 32.5937 60.2728 32.6866C60.2728 32.7717 60.2611 32.88 60.2378 33.0115C59.9884 33.0038 59.7001 32.9999 59.3728 32.9999C59.0455 32.9999 58.7611 33.0038 58.5196 33.0115C58.4962 32.8954 58.4845 32.7949 58.4845 32.7098C58.4845 32.6169 58.4923 32.5009 58.5079 32.3616L58.917 32.3268C58.9793 31.4913 59.0105 30.4353 59.0105 29.1588C59.0105 27.8746 58.9754 26.9152 58.9053 26.2809L58.4494 26.2461C58.4261 26.1377 58.4144 26.0178 58.4144 25.8863C58.4144 25.7548 58.4183 25.6581 58.4261 25.5962C59.0884 25.5807 59.5793 25.5614 59.8988 25.5382C60.0469 26.0952 60.4676 26.9307 61.1612 28.0448C61.8547 29.1588 62.5872 30.2496 63.3586 31.3172Z" fill="white"/>
<path d="M72.8191 26.3389C72.7646 26.9423 72.7373 27.9132 72.7373 29.2516C72.7373 30.5823 72.7685 31.6073 72.8308 32.3268L73.5088 32.3965C73.5243 32.5202 73.5321 32.6208 73.5321 32.6982C73.5321 32.7678 73.5204 32.8722 73.4971 33.0115C73.2165 33.0038 72.8113 32.9999 72.2815 32.9999C71.7594 32.9999 71.3776 33.0038 71.136 33.0115C71.1126 32.8954 71.1009 32.7987 71.1009 32.7214C71.1009 32.644 71.1087 32.5357 71.1243 32.3965L71.7672 32.3268C71.8295 31.499 71.8607 30.4508 71.8607 29.182C71.8607 27.9055 71.8256 26.9578 71.7555 26.3389C71.4516 26.3466 71.0308 26.3737 70.4931 26.4201L70.4581 27.2789C70.3334 27.3021 70.2165 27.3137 70.1074 27.3137C69.9983 27.3137 69.897 27.3098 69.8035 27.3021C69.7801 26.6677 69.7451 26.0797 69.6983 25.5382L69.7568 25.4802C70.3334 25.5498 71.2568 25.5846 72.5269 25.5846C73.7971 25.5846 74.5919 25.5498 74.9114 25.4802L74.9698 25.5382C74.9153 26.1339 74.8802 26.6832 74.8646 27.186C74.7711 27.1938 74.6698 27.1976 74.5607 27.1976C74.4594 27.1976 74.3425 27.186 74.2101 27.1628L74.175 26.3853C73.8477 26.3698 73.3958 26.3544 72.8191 26.3389Z" fill="white"/>
<path d="M83.6712 28.2885C83.8427 28.273 83.9596 28.2652 84.0219 28.2652C84.0842 28.2652 84.1855 28.2768 84.3258 28.3001C84.318 28.5399 84.3141 28.8493 84.3141 29.2284C84.3141 29.6075 84.318 29.8551 84.3258 29.9711C84.2089 29.9943 84.0959 30.0059 83.9868 30.0059C83.8777 30.0059 83.7725 29.9982 83.6712 29.9827L83.6362 29.5766C83.2154 29.5611 82.8686 29.5533 82.5959 29.5533C82.3232 29.5533 81.9764 29.5611 81.5556 29.5766C81.5556 30.59 81.5829 31.4371 81.6374 32.1179C81.9102 32.1412 82.2959 32.1528 82.7946 32.1528C83.3011 32.1528 83.6985 32.1334 83.9868 32.0947L84.0219 31.3056C84.1544 31.2824 84.2751 31.2708 84.3842 31.2708C84.5011 31.2708 84.5985 31.2747 84.6765 31.2824C84.6842 31.8859 84.7193 32.4583 84.7817 32.9999L84.7232 33.0579C84.3414 33.0192 83.5037 32.9999 82.2102 32.9999C80.9245 32.9999 80.2465 33.0038 80.1764 33.0115C80.153 32.8954 80.1413 32.7871 80.1413 32.6866C80.1413 32.5783 80.1491 32.4699 80.1647 32.3616L80.5738 32.3268C80.6439 31.1277 80.679 30.0446 80.679 29.0776C80.679 28.1028 80.6322 27.1628 80.5387 26.2577L80.1413 26.2228C80.1257 26.1223 80.1179 26.0178 80.1179 25.9095C80.1179 25.8012 80.1296 25.689 80.153 25.573C80.3478 25.5807 81.0608 25.5846 82.292 25.5846C83.5232 25.5846 84.3141 25.5498 84.6648 25.4802L84.7232 25.5382C84.6609 26.219 84.6258 26.7683 84.618 27.186C84.5401 27.1938 84.4427 27.1976 84.3258 27.1976C84.2089 27.1976 84.0881 27.186 83.9635 27.1628L83.9284 26.3737C83.531 26.3505 83.118 26.3389 82.6894 26.3389C82.2608 26.3389 81.9063 26.3505 81.6258 26.3737C81.579 26.8611 81.5556 27.6579 81.5556 28.7642C81.6803 28.772 81.9336 28.7758 82.3154 28.7758C82.6972 28.7758 83.1375 28.7604 83.6362 28.7294L83.6712 28.2885Z" fill="white"/>
<path d="M94.8052 27.7779C94.5636 27.7779 94.3766 27.7044 94.2441 27.5574C94.1116 27.4104 94.0454 27.2208 94.0454 26.9887C94.0454 26.7489 94.0961 26.5632 94.1974 26.4317C93.948 26.1996 93.6051 26.0836 93.1688 26.0836C92.5298 26.0836 92.0467 26.3505 91.7194 26.8843C91.3921 27.4104 91.2285 28.1879 91.2285 29.2168C91.2285 31.2824 91.8752 32.3152 93.1688 32.3152C93.4805 32.3152 93.796 32.2417 94.1155 32.0947C94.4428 31.94 94.7194 31.7389 94.9454 31.4913C95.187 31.6847 95.3428 31.9903 95.413 32.4081C94.7194 32.9187 93.9714 33.174 93.1688 33.174C92.148 33.174 91.4077 32.8606 90.948 32.234C90.496 31.6073 90.27 30.6326 90.27 29.3096C90.27 26.7025 91.2363 25.3989 93.1688 25.3989C93.7532 25.3989 94.2714 25.5537 94.7233 25.8631C95.1831 26.1648 95.413 26.5594 95.413 27.0468C95.413 27.5342 95.2104 27.7779 94.8052 27.7779Z" fill="white"/>
<path d="M102.79 32.3616C102.806 32.4854 102.813 32.5937 102.813 32.6866C102.813 32.7717 102.802 32.88 102.778 33.0115C102.506 33.0038 102.19 32.9999 101.831 32.9999C101.473 32.9999 101.161 33.0038 100.896 33.0115C100.873 32.8954 100.861 32.7949 100.861 32.7098C100.861 32.6169 100.869 32.5009 100.885 32.3616L101.294 32.3268C101.356 31.4913 101.387 30.4276 101.387 29.1356C101.387 27.8359 101.352 26.865 101.282 26.2228L100.885 26.188C100.869 26.0643 100.861 25.9598 100.861 25.8747C100.861 25.7819 100.873 25.6697 100.896 25.5382C101.169 25.5459 101.485 25.5498 101.843 25.5498C102.202 25.5498 102.513 25.5459 102.778 25.5382C102.802 25.6542 102.813 25.7587 102.813 25.8515C102.813 25.9366 102.806 26.0488 102.79 26.188L102.346 26.2228C102.291 26.9036 102.264 27.774 102.264 28.8339C102.685 28.8803 103.191 28.9035 103.783 28.9035C104.376 28.9035 104.941 28.8725 105.478 28.8107C105.463 27.5806 105.428 26.718 105.373 26.2228L104.976 26.188C104.96 26.0643 104.952 25.9598 104.952 25.8747C104.952 25.7819 104.964 25.6697 104.987 25.5382C105.26 25.5459 105.576 25.5498 105.934 25.5498C106.293 25.5498 106.604 25.5459 106.869 25.5382C106.893 25.6542 106.904 25.7587 106.904 25.8515C106.904 25.9366 106.896 26.0488 106.881 26.188L106.437 26.2228C106.382 26.8495 106.355 27.8204 106.355 29.1356C106.355 30.4508 106.39 31.5145 106.46 32.3268L106.881 32.3616C106.896 32.4854 106.904 32.5937 106.904 32.6866C106.904 32.7717 106.893 32.88 106.869 33.0115C106.596 33.0038 106.281 32.9999 105.922 32.9999C105.564 32.9999 105.252 33.0038 104.987 33.0115C104.964 32.8954 104.952 32.7949 104.952 32.7098C104.952 32.6169 104.96 32.5009 104.976 32.3616L105.385 32.3268C105.432 31.6538 105.463 30.7912 105.478 29.739C104.98 29.6849 104.415 29.6578 103.783 29.6578C103.152 29.6578 102.646 29.6849 102.264 29.739C102.28 30.8376 102.315 31.7002 102.369 32.3268L102.79 32.3616Z" fill="white"/>
<defs>
<clipPath id="clip0_141_136">
<rect width="27.1397" height="29.7" fill="white" transform="translate(5 4)"/>
</clipPath>
</defs>
</svg>
